HIERARCHY
ROOT MidHip
{
    OFFSET 0.0 0.0 0.0
    CHANNELS 6 Xposition Yposition Zposition Zrotation Xrotation Yrotation
    JOINT Spine
    {
        OFFSET 0.0 0.0 14.172530334970062
        CHANNELS 3 Zrotation Xrotation Yrotation
        JOINT MidShoulder
        {
            OFFSET 0.0 0.0 14.172530334970062
            CHANNELS 3 Zrotation Xrotation Yrotation
            JOINT Nose
            {
                OFFSET 0.0 0.0 11.012460190925133
                CHANNELS 3 Zrotation Xrotation Yrotation
                End Site
                {
                    OFFSET 0.0 0.0 4.404984076370053
                }
            }
            JOINT RightShoulder
            {
                OFFSET -9.518660720188084 0.0 0.0
                CHANNELS 3 Zrotation Xrotation Yrotation
                JOINT RightElbow
                {
                    OFFSET -13.921090194112036 0.0 0.0
                    CHANNELS 3 Zrotation Xrotation Yrotation
                    JOINT RightWrist
                    {
                        OFFSET -11.794763008219645 0.0 0.0
                        CHANNELS 3 Zrotation Xrotation Yrotation
                        End Site
                        {
                            OFFSET -3.336062762240141 3.336062762240141 0.0
                        }
                        End Site
                        {
                            OFFSET -4.717905203287858 0.0 0.0
                        }
                        End Site
                        {
                            OFFSET -3.336062762240141 -3.336062762240141 0.0
                        }
                    }
                }
            }
            JOINT LeftShoulder
            {
                OFFSET 9.518660720188084 0.0 0.0
                CHANNELS 3 Zrotation Xrotation Yrotation
                JOINT LeftElbow
                {
                    OFFSET 13.921090194112036 0.0 0.0
                    CHANNELS 3 Zrotation Xrotation Yrotation
                    JOINT LeftWrist
                    {
                        OFFSET 11.794763008219645 0.0 0.0
                        CHANNELS 3 Zrotation Xrotation Yrotation
                        End Site
                        {
                            OFFSET 3.336062762240141 3.336062762240141 0.0
                        }
                        End Site
                        {
                            OFFSET 4.717905203287858 0.0 0.0
                        }
                        End Site
                        {
                            OFFSET 3.336062762240141 -3.336062762240141 0.0
                        }
                    }
                }
            }
        }
    }
    JOINT RightHip
    {
        OFFSET -5.381052733225881 0.0 0.0
        CHANNELS 3 Zrotation Xrotation Yrotation
        JOINT RightKnee
        {
            OFFSET 0.0 0.0 -18.733864813563073
            CHANNELS 3 Zrotation Xrotation Yrotation
            JOINT RightAnkle
            {
                OFFSET 0.0 0.0 -20.175941568638564
                CHANNELS 3 Zrotation Xrotation Yrotation
                End Site
                {
                    OFFSET 0.0 5.706618040003151 -5.706618040003151
                }
                End Site
                {
                    OFFSET 0.0 -5.706618040003151 -5.706618040003151
                }
            }
        }
    }
    JOINT LeftHip
    {
        OFFSET 5.381052733225881 0.0 0.0
        CHANNELS 3 Zrotation Xrotation Yrotation
        JOINT LeftKnee
        {
            OFFSET 0.0 0.0 -18.733864813563073
            CHANNELS 3 Zrotation Xrotation Yrotation
            JOINT LeftAnkle
            {
                OFFSET 0.0 0.0 -20.175941568638564
                CHANNELS 3 Zrotation Xrotation Yrotation
                End Site
                {
                    OFFSET 0.0 5.706618040003151 -5.706618040003151
                }
                End Site
                {
                    OFFSET 0.0 -5.706618040003151 -5.706618040003151
                }
            }
        }
    }
}
MOTION
Frames: 9
Frame Time: 0.03333333333333333
-15.238096840424037 42.007041819589496 23.27543868636022 84.08315504374077 6.916106051314038 93.8248412201955 -0.9303580342168951 -9.663626440451672 -5.5317076821229625 -10.775899207922613 1.8999012895045665e-14 1.7919040035532893e-15 0.0 0.0 0.0 -24.51911816096272 -26.052169029487832 -4.6853600580485155 76.82484366992514 -1.288884236702226e-14 -6.016336432883542e-15 24.150520603081038 22.580848531223047 -9.768955317741995 -2.389677429916815 10.763146015699991 2.1358220328727735 -20.644543526414484 0.0 0.0 -24.393795126613607 58.37019305285927 -158.88714933260178 -0.8567934485159382 -8.91234766463449 6.918816675164354 3.898754271443773 17.14061405849392 -5.254135295123116 0.0 0.0 0.0 -2.5820198904172362 -25.287824941252826 -32.200340166364924 -6.569478971233561 13.103626074719013 7.603489706127763 0.0 0.0 0.0
-15.147817918655903 41.5560578660479 22.213891241499805 84.7235061537659 8.060875247651651 95.46666451595938 -0.9537030883761353 -8.737807783007508 -6.061082244023045 -7.706265618094002 -8.549226081154527e-16 1.269346117662968e-14 0.0 0.0 0.0 -18.233882317881854 -42.31520312493712 -2.5484555847792127 71.76981234060567 -1.2884364747698827e-14 9.321552826259322e-15 22.124149362825403 31.72664400311855 -12.067641648210909 -7.297901972507745 18.653086955751107 1.50916480818444 -19.440257379467766 5.369910441316975e-16 -3.1348953252543924e-15 -22.37287954691507 25.17748686458943 -170.0675575004771 -0.8349312603492975 -7.663536172744665 6.578721289233378 4.1681756668017105 17.719946637708944 -5.045602287421028 3.1805546814635168e-15 0.0 0.0 -2.6056556542697122 -22.77251494139561 -34.08600116470759 -5.669356616149071 10.798868139962813 8.825079298136561 0.0 0.0 0.0
-14.960565207565974 41.22943017316322 21.114431771309324 85.3576152457591 10.05244609089412 97.33964922428805 -1.109398298077183 -8.299807656509293 -6.47571316359385 -6.412254609082001 -3.5576590279356523e-16 6.3511528834950476e-15 0.0 0.0 0.0 -10.021322641983277 -55.13829585129652 -1.1541302873802448 70.72260464531048 3.472032542816251e-15 1.3136235286949633e-14 111.21339074057443 -81.81092343659239 111.4122238218265 -3.1072400653896173 4.845645355377214 4.64452652314946 -44.539380704927844 -2.9433181332498677e-15 -1.205324208776215e-15 -31.51405325802762 41.53918441994719 -157.8737521666219 -1.0095031970242119 -7.5616035407596165 4.036231829256061 4.618346279609302 21.3093457249301 -1.338978158623121 -3.1805546814635164e-15 0.0 0.0 -2.888540384185136 -20.79140296263119 -34.69343625868217 -5.334285058368508 10.515751460010975 10.352587566229802 -6.3611093629270335e-15 0.0 0.0
-14.831325104990617 40.94861176781423 19.95545191675685 85.47322776172966 13.427785483179788 99.7727837378011 -1.273935423918812 -7.937397807500853 -7.026312265638534 -5.038365980929177 6.354961742191844e-15 2.795953905127647e-16 0.0 0.0 0.0 28.636220941074438 -77.86297245939053 25.00774655307466 70.16736887930271 -3.656189155130523e-15 -5.205381176150689e-15 27.7783382840537 -10.719162469171803 5.595656237263709 -3.8266689108361045 3.1617827957796343 7.899712707070897 -62.426020954556286 -8.241154770499735e-16 1.360079299501161e-15 -25.76954924343983 47.63148694442426 -160.36979858232027 -0.8143869027081628 -5.093627880565456 2.362640807172986 4.301813026608746 20.306973115855364 0.6171421472416695 -3.1805546814635168e-15 0.0 0.0 -3.732262791672437 -22.206514994870467 -35.71650246343828 -6.215331862921874 12.556394764569983 11.94222172210899 0.0 0.0 0.0
-14.613116054962783 40.49067252090243 18.756789684534297 85.78067601420642 18.26916184677538 102.64731979053849 -1.5071778453573559 -8.080946305375983 -8.73303428354723 -3.0511646529518393 -6.528208237571849e-15 6.1895009379702805e-15 0.0 0.0 0.0 39.85631390811425 -79.49356155479526 37.95089562381347 86.84858588256718 3.95971434396579e-15 -2.126457937737056e-14 34.797581973682775 -11.15973968314451 7.660601918603953 -8.746158198550104 -5.881946736410523 16.60874827074437 -65.79323089383097 -5.341117875978099e-15 -3.454876576959756e-15 -42.19469135476517 60.97196262987055 -141.5963521413053 -0.46000370120622963 -2.481566362365231 0.34144323955462713 4.12140087071669 20.561155934242755 1.790916597067597 0.0 0.0 0.0 -4.526988972679598 -23.07715202515287 -37.414638541110435 -6.467323149692243 13.006703813869212 13.449007336983248 0.0 0.0 0.0
-14.13675289097933 39.693831496387375 17.214489854021707 86.04581667383283 23.10264760681003 104.68972462661111 -1.3749868316099034 -6.758607643646549 -8.097395810691744 -2.8305802967594746 -1.2639781214920336e-14 -3.4938099875634913e-15 0.0 0.0 0.0 35.09131053597867 -84.02472594096636 34.13608780630475 94.50955912182584 -2.1216156227568708e-14 4.211459213823509e-15 38.11709653245363 -2.2237933727123638 1.7437718954782893 -12.079680032989865 -3.2851449887964557 24.47495692649132 -72.87865606309455 1.562730002473362e-14 5.6077209421878136e-15 -15.399665676743242 33.062643936098816 -171.45423771883316 0.17835245661743743 0.8807759927724985 -1.3812650837322487 4.013298031823845 21.51658272664208 4.366553469825549 -3.1805546814635168e-15 0.0 0.0 -5.012443787845754 -23.34083393974197 -37.3077864283924 -6.043088493147195 12.820662703801194 14.035528907021604 0.0 0.0 0.0
-13.703174601532378 39.12033802721897 15.995316198264737 84.75122038442902 29.152877014757532 107.8807453741259 -1.38429760184701 -6.172388827041229 -7.7112303187447875 -2.417373045463642 -1.907908198984028e-14 -4.025436237401665e-16 0.0 0.0 0.0 -111.57536667601005 -76.4353433362111 -107.28778218513285 114.80987494903725 -7.819690672147098e-15 6.325481689937182e-15 30.229873340216223 -4.623698097609255 2.689384658769081 -14.342562342332293 -3.9603026549658815 32.78853384541217 -78.97450674284279 3.681966294800387e-15 3.0338032876173386e-15 -17.362540092331393 30.70575788907642 -170.92899940601552 0.6665196848699126 2.980998471543816 -3.945929468351748 3.5829526616382252 22.300578098603957 7.15284547809936 9.541664044390553e-15 0.0 0.0 -6.731866536726692 -27.688863036320807 -37.22693259738755 -6.890069210033106 15.800289698762391 13.102959344960604 0.0 0.0 0.0
-13.261000533829206 38.891001425231345 14.732523764903005 81.89162777521338 39.16348228303632 111.30103128109049 -1.3536655998498144 -6.53544902967267 -6.02304816765192 -0.8091030606745424 -2.2456934584593427e-17 3.180475399664106e-15 3.1805546814635176e-15 -8.827812596100317e-32 -3.1805546814635176e-15 142.29552831970642 -71.35727029978763 141.58157976590022 70.23455681710372 -2.844805132830858e-15 9.777287281984662e-15 16.73417626215813 -12.555336334385299 3.7394883599609168 -19.758543674958705 -11.777844697274586 42.78358253261542 -75.85352155298963 -6.972564202157191e-15 -1.4010670418268792e-15 -13.22378861384815 26.057173863101003 -174.10669982528498 1.1351040931612906 5.487445848468022 -5.150892584960731 3.055371091427267 24.88438899463649 7.017225564967424 3.1805546814635168e-15 0.0 0.0 -8.270221986707393 -34.89793365329803 -34.23926586982534 -7.849443180561104 20.58355070306271 11.43144014943159 0.0 0.0 0.0
-12.542089867190231 38.87777715961235 13.655786136276781 78.0159974423633 46.213807286250564 115.60668108279518 -1.2424350070546757 -6.935608635140499 -4.408956001934906 2.6690348578194376 0.0 0.0 -3.1805546814635168e-15 0.0 0.0 171.96297596576002 -36.99787572060084 138.24140023903524 57.56464665315794 -5.8384344227356194e-15 2.583646765341382e-15 33.78263024056489 -43.33456850633726 24.6602344221604 -25.625558315025014 -12.18126612848398 51.36996742362059 -73.63207537309236 0.0 0.0 -19.737263653108876 25.32512208811641 -171.27477361164125 0.9576886013793903 5.356850495682087 -6.587297570003291 1.9923910355146306 29.16840301578704 7.675138002411174 -1.5902773407317584e-15 0.0 0.0 -8.236420686132952 -38.78874738259399 -32.78654002080127 -8.337272448331717 21.96357046911338 11.094969713471412 0.0 0.0 0.0
